<svg width="22" height="22" viewBox="0 0 22 22" fill="none" xmlns="http://www.w3.org/2000/svg">
<path d="M19.25 11C19.25 6.44531 15.5547 2.75 11 2.75C6.44531 2.75 2.75 6.44531 2.75 11C2.75 15.5547 6.44531 19.25 11 19.25C15.5547 19.25 19.25 15.5547 19.25 11Z" stroke="black" stroke-width="1.375" stroke-miterlimit="10"/>
<path d="M15.0678 6.48531L10.0319 8.49969C9.68603 8.638 9.37187 8.84514 9.10847 9.10854C8.84508 9.37193 8.63794 9.68609 8.49962 10.032L6.48525 15.0679C6.46024 15.1304 6.45412 15.1988 6.46764 15.2647C6.48117 15.3306 6.51374 15.3911 6.56131 15.4387C6.60889 15.4863 6.66939 15.5189 6.73531 15.5324C6.80122 15.5459 6.86966 15.5398 6.93212 15.5148L11.9681 13.5004C12.3139 13.3621 12.6281 13.1549 12.8915 12.8916C13.1549 12.6282 13.362 12.314 13.5003 11.9681L15.5147 6.93219C15.5397 6.86972 15.5458 6.80128 15.5323 6.73537C15.5188 6.66945 15.4862 6.60896 15.4386 6.56138C15.3911 6.5138 15.3306 6.48123 15.2646 6.46771C15.1987 6.45418 15.1303 6.4603 15.0678 6.48531ZM11 12.0313C10.796 12.0313 10.5966 11.9708 10.427 11.8575C10.2575 11.7442 10.1253 11.5831 10.0472 11.3947C9.96917 11.2062 9.94875 10.9989 9.98854 10.7989C10.0283 10.5988 10.1265 10.4151 10.2708 10.2708C10.415 10.1266 10.5987 10.0284 10.7988 9.98861C10.9988 9.94882 11.2062 9.96924 11.3946 10.0473C11.5831 10.1253 11.7441 10.2575 11.8574 10.4271C11.9707 10.5967 12.0312 10.7961 12.0312 11C12.0312 11.2735 11.9226 11.5359 11.7292 11.7292C11.5358 11.9226 11.2735 12.0313 11 12.0313Z" fill="black"/>
</svg>
